<svg width="21" height="20" viewBox="0 0 21 20" fill="none" xmlns="http://www.w3.org/2000/svg">
<path d="M15 0.25H6C4.60807 0.251489 3.27358 0.805091 2.28933 1.78933C1.30509 2.77358 0.751489 4.10807 0.75 5.5V14.5C0.751489 15.8919 1.30509 17.2264 2.28933 18.2107C3.27358 19.1949 4.60807 19.7485 6 19.75H15C16.3919 19.7485 17.7264 19.1949 18.7107 18.2107C19.6949 17.2264 20.2485 15.8919 20.25 14.5V5.5C20.2485 4.10807 19.6949 2.77358 18.7107 1.78933C17.7264 0.805091 16.3919 0.251489 15 0.25ZM10.5 14.5C9.60998 14.5 8.73995 14.2361 7.99993 13.7416C7.25991 13.2471 6.68314 12.5443 6.34254 11.7221C6.00195 10.8998 5.91283 9.99501 6.08647 9.12209C6.2601 8.24918 6.68868 7.44736 7.31802 6.81802C7.94736 6.18868 8.74918 5.7601 9.62209 5.58647C10.495 5.41283 11.3998 5.50195 12.2221 5.84254C13.0443 6.18314 13.7471 6.75991 14.2416 7.49993C14.7361 8.23995 15 9.10998 15 10C14.9988 11.1931 14.5243 12.337 13.6806 13.1806C12.837 14.0243 11.6931 14.4988 10.5 14.5ZM16.125 5.5C15.9025 5.5 15.685 5.43402 15.5 5.3104C15.315 5.18679 15.1708 5.01109 15.0856 4.80552C15.0005 4.59995 14.9782 4.37375 15.0216 4.15552C15.065 3.93729 15.1722 3.73684 15.3295 3.5795C15.4868 3.42217 15.6873 3.31502 15.9055 3.27162C16.1238 3.22821 16.35 3.25049 16.5555 3.33564C16.7611 3.42078 16.9368 3.56498 17.0604 3.74998C17.184 3.93499 17.25 4.1525 17.25 4.375C17.25 4.67337 17.1315 4.95952 16.9205 5.1705C16.7095 5.38147 16.4234 5.5 16.125 5.5ZM13.5 10C13.5 10.5933 13.3241 11.1734 12.9944 11.6667C12.6648 12.1601 12.1962 12.5446 11.648 12.7716C11.0999 12.9987 10.4967 13.0581 9.91473 12.9424C9.33279 12.8266 8.79824 12.5409 8.37868 12.1213C7.95912 11.7018 7.6734 11.1672 7.55764 10.5853C7.44189 10.0033 7.5013 9.40013 7.72836 8.85195C7.95542 8.30377 8.33994 7.83524 8.83329 7.50559C9.32664 7.17595 9.90666 7 10.5 7C11.2956 7 12.0587 7.31607 12.6213 7.87868C13.1839 8.44129 13.5 9.20435 13.5 10Z" fill="#1E1E1E"/>
</svg>
