<svg width="21" height="18" viewBox="0 0 21 18" fill="none" xmlns="http://www.w3.org/2000/svg">
<path d="M20.4684 3.5175C20.3801 3.17189 20.2109 2.85224 19.9747 2.58491C19.7385 2.31758 19.4421 2.11024 19.11 1.98C15.8962 0.738753 10.7812 0.750004 10.5 0.750004C10.2188 0.750004 5.10375 0.738753 1.89 1.98C1.5579 2.11024 1.26153 2.31758 1.02534 2.58491C0.789145 2.85224 0.619899 3.17189 0.531563 3.5175C0.28875 4.45313 0 6.16313 0 9C0 11.8369 0.28875 13.5469 0.531563 14.4825C0.619767 14.8283 0.788954 15.1481 1.02515 15.4156C1.26136 15.6831 1.5578 15.8906 1.89 16.0209C4.96875 17.2088 9.7875 17.25 10.4381 17.25H10.5619C11.2125 17.25 16.0341 17.2088 19.11 16.0209C19.4422 15.8906 19.7386 15.6831 19.9748 15.4156C20.211 15.1481 20.3802 14.8283 20.4684 14.4825C20.7113 13.545 21 11.8369 21 9C21 6.16313 20.7113 4.45313 20.4684 3.5175ZM13.5553 9.61126L9.80531 12.2363C9.69314 12.3148 9.56158 12.3612 9.42492 12.3703C9.28826 12.3794 9.15172 12.351 9.0301 12.288C8.90847 12.225 8.80642 12.1299 8.73501 12.013C8.6636 11.8962 8.62555 11.762 8.625 11.625V6.375C8.62504 6.2378 8.66271 6.10324 8.73392 5.98597C8.80513 5.86869 8.90714 5.77319 9.02885 5.70987C9.15057 5.64655 9.28732 5.61783 9.42422 5.62683C9.56113 5.63584 9.69294 5.68222 9.80531 5.76094L13.5553 8.38594C13.654 8.45512 13.7345 8.54704 13.7901 8.65393C13.8457 8.76081 13.8747 8.87952 13.8747 9C13.8747 9.12049 13.8457 9.23919 13.7901 9.34608C13.7345 9.45297 13.654 9.54489 13.5553 9.61407V9.61126Z" fill="#1E1E1E"/>
</svg>
