<svg width="21" height="22" viewBox="0 0 21 22" fill="none" xmlns="http://www.w3.org/2000/svg">
<path d="M10.5151 0.5C4.7076 0.5 0 5.19627 0 10.9898C0 15.4334 2.77219 19.2273 6.68445 20.7551C6.59169 19.9243 6.50946 18.6531 6.71866 17.7474C6.91075 16.9271 7.95213 12.5347 7.95213 12.5347C7.95213 12.5347 7.63702 11.902 7.63702 10.976C7.63702 9.51978 8.48697 8.42972 9.53888 8.42972C10.4368 8.42972 10.8717 9.09977 10.8717 9.90633C10.8717 10.8054 10.2994 12.1521 10.0013 13.3997C9.75136 14.4425 10.5257 15.293 11.5572 15.293C13.4248 15.293 14.8635 13.3275 14.8635 10.4904C14.8635 7.98805 13.0544 6.23121 10.4711 6.23121C7.4798 6.23121 5.7253 8.47369 5.7253 10.7805C5.7253 11.6828 6.07133 12.6535 6.50683 13.1765C6.59235 13.2822 6.60288 13.3747 6.57854 13.481C6.49959 13.8092 6.32131 14.5304 6.28711 14.6741C6.23908 14.869 6.13646 14.9097 5.9345 14.8179C4.62537 14.2128 3.79976 12.2984 3.79976 10.7536C3.79976 7.44859 6.21211 4.40612 10.7487 4.40612C14.3945 4.40612 17.2312 7.00364 17.2312 10.4628C17.2312 14.0828 14.9458 16.9947 11.7664 16.9947C10.7006 16.9947 9.70005 16.4441 9.34744 15.7878L8.68959 18.2797C8.45342 19.1926 7.80872 20.3371 7.37388 21.0314C8.36066 21.332 9.39875 21.5 10.4882 21.5C16.2858 21.5 21 16.807 21 11.0102C21 5.21662 16.2852 0.523626 10.4882 0.523626L10.5151 0.5Z" fill="#1E1E1E"/>
</svg>
