<svg width="21" height="20" viewBox="0 0 21 20" fill="none" xmlns="http://www.w3.org/2000/svg">
<path d="M10.4998 0C4.97711 0 0.5 4.49365 0.5 10.0367C0.5 14.7436 3.72873 18.6932 8.08425 19.778V13.104H6.02229V10.0367H8.08425V8.7151C8.08425 5.29899 9.62462 3.7156 12.9661 3.7156C13.5997 3.7156 14.6929 3.84046 15.1401 3.96491V6.74509C14.9041 6.72019 14.4941 6.70775 13.9849 6.70775C12.3454 6.70775 11.7118 7.33123 11.7118 8.95196V10.0367H14.9781L14.4169 13.104H11.7118V20C16.6633 19.3998 20.5 15.1683 20.5 10.0367C20.4996 4.49365 16.0225 0 10.4998 0Z" fill="#1E1E1E"/>
</svg>
