<svg width="0" height="0" class="hidden">
  <symbol fill="none" xmlns="http://www.w3.org/2000/svg" viewBox="0 0 21 21" id="upload">
    <path fill-rule="evenodd" clip-rule="evenodd" d="M0.5 10.5C0.5 5.78595 0.5 3.42893 1.96447 1.96447C3.42893 0.5 5.78595 0.5 10.5 0.5C15.214 0.5 17.5711 0.5 19.0355 1.96447C20.5 3.42893 20.5 5.78595 20.5 10.5C20.5 15.214 20.5 17.5711 19.0355 19.0355C17.5711 20.5 15.214 20.5 10.5 20.5C5.78595 20.5 3.42893 20.5 1.96447 19.0355C0.5 17.5711 0.5 15.214 0.5 10.5ZM10.5 16.25C10.9142 16.25 11.25 15.9142 11.25 15.5V10.3107L12.9697 12.0303C13.2626 12.3232 13.7374 12.3232 14.0303 12.0303C14.3232 11.7374 14.3232 11.2626 14.0303 10.9697L11.0303 7.96967C10.8897 7.82902 10.6989 7.75 10.5 7.75C10.3011 7.75 10.1103 7.82902 9.9697 7.96967L6.96967 10.9697C6.67678 11.2626 6.67678 11.7374 6.96967 12.0303C7.26256 12.3232 7.73744 12.3232 8.03033 12.0303L9.75 10.3107V15.5C9.75 15.9142 10.0858 16.25 10.5 16.25ZM6.5 6.25C6.08579 6.25 5.75 5.91421 5.75 5.5C5.75 5.08579 6.08579 4.75 6.5 4.75H14.5C14.9142 4.75 15.25 5.08579 15.25 5.5C15.25 5.91421 14.9142 6.25 14.5 6.25H6.5Z" fill="#1E1E1E"></path>
  </symbol>
</svg>