<svg width="154" height="72" viewBox="0 0 154 72" fill="none" xmlns="http://www.w3.org/2000/svg">
<g clip-path="url(#clip0_2001_181)">
<path d="M86.1189 25.8237C84.2834 27.9756 81.5522 29.3437 78.5142 29.3437C78.5045 29.3437 78.3438 29.3437 78.1832 29.3437C78.0225 29.3437 77.8472 29.3388 77.8375 29.3388C73.0225 29.295 69.1131 25.3417 69.1277 20.5219V20.0204C69.152 15.7117 72.375 12.1577 76.5279 11.6027L76.4646 24.4264L77.969 24.4362H77.9836H78.227C78.2708 24.4362 78.3 24.4362 78.3 24.4362C80.2912 24.4362 82.1364 23.7448 83.4947 22.479C84.9261 21.1499 85.7148 19.2609 85.7294 17.1626C85.7391 15.2152 84.9699 13.3651 83.558 11.963C82.1559 10.5657 80.3107 9.7916 78.3584 9.78186H78.3L78.3438 0.633875L76.5814 0.624138L76.5376 9.82568C71.411 10.3904 67.3945 14.7332 67.3653 20.0155C67.3653 20.0253 67.3653 20.517 67.3653 20.5219C67.3507 26.3057 72.0439 31.0525 77.8278 31.1061C78.0582 31.1093 78.2838 31.1093 78.5045 31.1061C82.0342 31.1109 85.2085 29.5481 87.3652 27.0749L86.1189 25.8237ZM78.2903 11.5443H78.3487C79.8336 11.554 81.2455 12.148 82.3166 13.2142C83.3876 14.2804 83.9767 15.6825 83.967 17.1577C83.9573 18.7887 83.3828 20.1811 82.2971 21.1937C81.265 22.1528 79.8482 22.6835 78.3049 22.6786H78.2367L78.2903 11.5491V11.5443Z" fill="black"/>
</g>
<path d="M3.988 40.7631C4.74533 40.7631 5.43867 40.8538 6.068 41.0351C6.708 41.2058 7.252 41.5098 7.7 41.9471C8.15867 42.3844 8.516 42.9764 8.772 43.7231C9.028 44.4591 9.156 45.3924 9.156 46.5231C9.156 47.6218 9.028 48.5391 8.772 49.2751C8.52667 50.0111 8.17467 50.6031 7.716 51.0511C7.25733 51.4991 6.71333 51.8191 6.084 52.0111C5.45467 52.1924 4.76667 52.2831 4.02 52.2831H1.94V40.7631H3.988ZM3.3 41.7711V51.2271H4.004C4.65467 51.2271 5.21467 51.1471 5.684 50.9871C6.164 50.8164 6.55867 50.5444 6.868 50.1711C7.17733 49.7978 7.40667 49.3124 7.556 48.7151C7.70533 48.1178 7.78 47.3871 7.78 46.5231C7.78 44.8698 7.476 43.6644 6.868 42.9071C6.26 42.1498 5.29467 41.7711 3.972 41.7711H3.3ZM17.8813 40.7631V52.2831H16.5213V40.7631H17.8813ZM32.2916 40.7631V52.2831H30.5316L26.7876 42.5551V52.2831H25.5556V40.7631H27.3636L31.0916 50.3471V40.7631H32.2916ZM45.773 52.2831L44.925 49.1951H40.893L40.029 52.2831H38.685L42.125 40.7631H43.789L47.213 52.2831H45.773ZM41.197 48.1551H44.637L42.941 42.0111L41.197 48.1551ZM59.2248 52.2831L56.6488 47.7711H54.9688V52.2831H53.6088V40.7631H56.0088C57.2568 40.7631 58.2328 41.0511 58.9368 41.6271C59.6408 42.1924 59.9928 43.0884 59.9928 44.3151C59.9928 44.7524 59.9394 45.1418 59.8328 45.4831C59.7261 45.8138 59.5821 46.1071 59.4008 46.3631C59.2194 46.6191 59.0061 46.8378 58.7608 47.0191C58.5154 47.2004 58.2541 47.3498 57.9768 47.4671L60.8408 52.2831H59.2248ZM54.9688 41.8031V46.7311H56.0408C56.8728 46.7311 57.5074 46.5338 57.9448 46.1391C58.3821 45.7338 58.6008 45.1258 58.6008 44.3151C58.6008 43.5044 58.4034 42.8858 58.0088 42.4591C57.6141 42.0218 56.9421 41.8031 55.9928 41.8031H54.9688ZM73.123 52.2831L72.275 49.1951H68.243L67.379 52.2831H66.035L69.475 40.7631H71.139L74.563 52.2831H73.123ZM68.547 48.1551H71.987L70.291 42.0111L68.547 48.1551ZM95.8996 52.2831L91.9156 46.9231V52.2831H90.5556V40.7631H91.9156V45.7871L95.5316 40.7631H97.0516L93.0356 46.2511L97.5636 52.2831H95.8996ZM109.851 52.2831L109.003 49.1951H104.971L104.107 52.2831H102.763L106.203 40.7631H107.867L111.291 52.2831H109.851ZM105.275 48.1551H108.715L107.019 42.0111L105.275 48.1551ZM120.635 41.5791C120.037 41.5791 119.547 41.7231 119.163 42.0111C118.779 42.2884 118.587 42.7311 118.587 43.3391C118.587 43.6164 118.624 43.8618 118.699 44.0751C118.773 44.2884 118.896 44.4804 119.067 44.6511C119.248 44.8218 119.483 44.9871 119.771 45.1471C120.059 45.2964 120.416 45.4511 120.843 45.6111C121.259 45.7711 121.653 45.9471 122.027 46.1391C122.4 46.3311 122.725 46.5658 123.003 46.8431C123.291 47.1204 123.515 47.4564 123.675 47.8511C123.845 48.2458 123.931 48.7258 123.931 49.2911C123.931 49.7284 123.84 50.1444 123.659 50.5391C123.488 50.9338 123.243 51.2804 122.923 51.5791C122.613 51.8671 122.24 52.0964 121.803 52.2671C121.365 52.4378 120.885 52.5231 120.363 52.5231C119.829 52.5231 119.36 52.4538 118.955 52.3151C118.56 52.1871 118.219 52.0164 117.931 51.8031C117.643 51.5791 117.403 51.3284 117.211 51.0511C117.029 50.7738 116.885 50.4858 116.779 50.1871L117.931 49.7551C118.005 49.9684 118.101 50.1764 118.219 50.3791C118.347 50.5818 118.507 50.7631 118.699 50.9231C118.891 51.0724 119.12 51.1951 119.387 51.2911C119.664 51.3871 119.995 51.4351 120.379 51.4351C120.635 51.4351 120.891 51.4031 121.147 51.3391C121.403 51.2644 121.632 51.1471 121.835 50.9871C122.048 50.8271 122.219 50.6138 122.347 50.3471C122.475 50.0804 122.539 49.7551 122.539 49.3711C122.539 48.9658 122.485 48.6298 122.379 48.3631C122.283 48.0964 122.123 47.8618 121.899 47.6591C121.685 47.4564 121.403 47.2751 121.051 47.1151C120.699 46.9551 120.277 46.7738 119.787 46.5711C118.923 46.2191 118.283 45.7924 117.867 45.2911C117.461 44.7898 117.259 44.1711 117.259 43.4351C117.259 43.0298 117.333 42.6511 117.483 42.2991C117.632 41.9364 117.851 41.6271 118.139 41.3711C118.427 41.1044 118.773 40.8964 119.179 40.7471C119.595 40.5978 120.069 40.5231 120.603 40.5231C121.509 40.5231 122.219 40.7098 122.731 41.0831C123.243 41.4458 123.637 41.9418 123.915 42.5711L122.731 42.9871C122.549 42.5391 122.299 42.1924 121.979 41.9471C121.659 41.7018 121.211 41.5791 120.635 41.5791ZM136.44 52.2831L132.456 46.9231V52.2831H131.096V40.7631H132.456V45.7871L136.072 40.7631H137.592L133.576 46.2511L138.104 52.2831H136.44ZM143.545 46.5231C143.545 45.4031 143.662 44.4644 143.897 43.7071C144.132 42.9391 144.441 42.3204 144.825 41.8511C145.209 41.3818 145.646 41.0458 146.137 40.8431C146.638 40.6298 147.156 40.5231 147.689 40.5231C148.222 40.5231 148.734 40.6298 149.225 40.8431C149.726 41.0458 150.169 41.3818 150.553 41.8511C150.937 42.3204 151.246 42.9391 151.481 43.7071C151.716 44.4644 151.833 45.4031 151.833 46.5231C151.833 47.6431 151.716 48.5871 151.481 49.3551C151.246 50.1124 150.937 50.7258 150.553 51.1951C150.169 51.6644 149.726 52.0058 149.225 52.2191C148.724 52.4218 148.212 52.5231 147.689 52.5231C147.156 52.5231 146.638 52.4218 146.137 52.2191C145.646 52.0058 145.209 51.6644 144.825 51.1951C144.441 50.7258 144.132 50.1124 143.897 49.3551C143.662 48.5871 143.545 47.6431 143.545 46.5231ZM144.937 46.5231C144.937 48.1444 145.166 49.3764 145.625 50.2191C146.084 51.0618 146.772 51.4831 147.689 51.4831C148.606 51.4831 149.294 51.0618 149.753 50.2191C150.212 49.3764 150.441 48.1444 150.441 46.5231C150.441 44.9018 150.212 43.6698 149.753 42.8271C149.294 41.9844 148.606 41.5631 147.689 41.5631C146.772 41.5631 146.084 41.9844 145.625 42.8271C145.166 43.6698 144.937 44.9018 144.937 46.5231Z" fill="black"/>
<path d="M32.7782 60.3274C33.1815 60.3274 33.5518 60.3788 33.8892 60.4814C34.2265 60.5768 34.5162 60.7308 34.7582 60.9434C35.0002 61.1488 35.1872 61.4091 35.3192 61.7244C35.4512 62.0398 35.5172 62.4138 35.5172 62.8464C35.5172 63.2791 35.4475 63.6568 35.3082 63.9794C35.1762 64.2948 34.9892 64.5588 34.7472 64.7714C34.5052 64.9768 34.2155 65.1308 33.8782 65.2334C33.5408 65.3361 33.1705 65.3874 32.7672 65.3874H31.9312V68.2474H30.9962V60.3274H32.7782ZM31.9312 61.0424V64.6724H32.7562C33.9588 64.6724 34.5602 64.0638 34.5602 62.8464C34.5602 62.2744 34.4135 61.8308 34.1202 61.5154C33.8342 61.2001 33.3942 61.0424 32.8002 61.0424H31.9312ZM44.7388 68.2474L44.1558 66.1244H41.3838L40.7898 68.2474H39.8658L42.2308 60.3274H43.3748L45.7288 68.2474H44.7388ZM41.5928 65.4094H43.9578L42.7918 61.1854L41.5928 65.4094ZM53.2524 60.8884C52.8418 60.8884 52.5044 60.9874 52.2404 61.1854C51.9764 61.3761 51.8444 61.6804 51.8444 62.0984C51.8444 62.2891 51.8701 62.4578 51.9214 62.6044C51.9728 62.7511 52.0571 62.8831 52.1744 63.0004C52.2991 63.1178 52.4604 63.2314 52.6584 63.3414C52.8564 63.4441 53.1021 63.5504 53.3954 63.6604C53.6814 63.7704 53.9528 63.8914 54.2094 64.0234C54.4661 64.1554 54.6898 64.3168 54.8804 64.5074C55.0784 64.6981 55.2324 64.9291 55.3424 65.2004C55.4598 65.4718 55.5184 65.8018 55.5184 66.1904C55.5184 66.4911 55.4561 66.7771 55.3314 67.0484C55.2141 67.3198 55.0454 67.5581 54.8254 67.7634C54.6128 67.9614 54.3561 68.1191 54.0554 68.2364C53.7548 68.3538 53.4248 68.4124 53.0654 68.4124C52.6988 68.4124 52.3761 68.3648 52.0974 68.2694C51.8261 68.1814 51.5914 68.0641 51.3934 67.9174C51.1954 67.7634 51.0304 67.5911 50.8984 67.4004C50.7738 67.2098 50.6748 67.0118 50.6014 66.8064L51.3934 66.5094C51.4448 66.6561 51.5108 66.7991 51.5914 66.9384C51.6794 67.0778 51.7894 67.2024 51.9214 67.3124C52.0534 67.4151 52.2111 67.4994 52.3944 67.5654C52.5851 67.6314 52.8124 67.6644 53.0764 67.6644C53.2524 67.6644 53.4284 67.6424 53.6044 67.5984C53.7804 67.5471 53.9381 67.4664 54.0774 67.3564C54.2241 67.2464 54.3414 67.0998 54.4294 66.9164C54.5174 66.7331 54.5614 66.5094 54.5614 66.2454C54.5614 65.9668 54.5248 65.7358 54.4514 65.5524C54.3854 65.3691 54.2754 65.2078 54.1214 65.0684C53.9748 64.9291 53.7804 64.8044 53.5384 64.6944C53.2964 64.5844 53.0068 64.4598 52.6694 64.3204C52.0754 64.0784 51.6354 63.7851 51.3494 63.4404C51.0708 63.0958 50.9314 62.6704 50.9314 62.1644C50.9314 61.8858 50.9828 61.6254 51.0854 61.3834C51.1881 61.1341 51.3384 60.9214 51.5364 60.7454C51.7344 60.5621 51.9728 60.4191 52.2514 60.3164C52.5374 60.2138 52.8638 60.1624 53.2304 60.1624C53.8538 60.1624 54.3414 60.2908 54.6934 60.5474C55.0454 60.7968 55.3168 61.1378 55.5074 61.5704L54.6934 61.8564C54.5688 61.5484 54.3964 61.3101 54.1764 61.1414C53.9564 60.9728 53.6484 60.8884 53.2524 60.8884ZM65.4524 61.1414H63.5164V68.2474H62.5814V61.1414H60.6674V60.3274H65.4524V61.1414ZM74.9191 68.2474L73.1481 65.1454H71.9931V68.2474H71.0581V60.3274H72.7081C73.5661 60.3274 74.2371 60.5254 74.7211 60.9214C75.2051 61.3101 75.4471 61.9261 75.4471 62.7694C75.4471 63.0701 75.4104 63.3378 75.3371 63.5724C75.2637 63.7998 75.1647 64.0014 75.0401 64.1774C74.9154 64.3534 74.7687 64.5038 74.6001 64.6284C74.4314 64.7531 74.2517 64.8558 74.0611 64.9364L76.0301 68.2474H74.9191ZM71.9931 61.0424V64.4304H72.7301C73.3021 64.4304 73.7384 64.2948 74.0391 64.0234C74.3397 63.7448 74.4901 63.3268 74.4901 62.7694C74.4901 62.2121 74.3544 61.7868 74.0831 61.4934C73.8117 61.1928 73.3497 61.0424 72.6971 61.0424H71.9931ZM85.7801 60.3274L83.5581 65.0794V68.2474H82.6341V65.0794L80.3681 60.3274H81.3911L83.1181 64.1114L84.8671 60.3274H85.7801ZM102.968 68.2474L102.385 66.1244H99.6129L99.0189 68.2474H98.0949L100.46 60.3274H101.604L103.958 68.2474H102.968ZM99.8219 65.4094H102.187L101.021 61.1854L99.8219 65.4094ZM113.316 68.2474L111.545 65.1454H110.39V68.2474H109.455V60.3274H111.105C111.963 60.3274 112.634 60.5254 113.118 60.9214C113.602 61.3101 113.844 61.9261 113.844 62.7694C113.844 63.0701 113.807 63.3378 113.734 63.5724C113.661 63.7998 113.562 64.0014 113.437 64.1774C113.312 64.3534 113.166 64.5038 112.997 64.6284C112.828 64.7531 112.649 64.8558 112.458 64.9364L114.427 68.2474H113.316ZM110.39 61.0424V64.4304H111.127C111.699 64.4304 112.135 64.2948 112.436 64.0234C112.737 63.7448 112.887 63.3268 112.887 62.7694C112.887 62.2121 112.751 61.7868 112.48 61.4934C112.209 61.1928 111.747 61.0424 111.094 61.0424H110.39ZM123.778 61.1414H121.842V68.2474H120.907V61.1414H118.993V60.3274H123.778V61.1414Z" fill="black"/>
<defs>
<clipPath id="clip0_2001_181">
<rect width="21" height="31" fill="white" transform="translate(66.5 0.283096)"/>
</clipPath>
</defs>
</svg>
