<svg width="154" height="72" viewBox="0 0 154 72" fill="none" xmlns="http://www.w3.org/2000/svg">
<g clip-path="url(#clip0_370_1395)">
<path d="M86.1189 25.7025C84.2834 27.8544 81.5522 29.2225 78.5142 29.2225C78.5045 29.2225 78.3438 29.2225 78.1832 29.2225C78.0225 29.2225 77.8472 29.2176 77.8375 29.2176C73.0225 29.1738 69.1131 25.2205 69.1277 20.4007V19.8992C69.152 15.5905 72.375 12.0365 76.5279 11.4815L76.4646 24.3052L77.969 24.315H77.9836H78.227C78.2708 24.315 78.3 24.315 78.3 24.315C80.2912 24.315 82.1364 23.6236 83.4947 22.3578C84.9261 21.0287 85.7148 19.1397 85.7294 17.0414C85.7391 15.0939 84.9699 13.2439 83.558 11.8418C82.1559 10.4445 80.3107 9.67039 78.3584 9.66065H78.3L78.3438 0.512667L76.5814 0.50293L76.5376 9.70447C71.411 10.2692 67.3945 14.612 67.3653 19.8943C67.3653 19.9041 67.3653 20.3958 67.3653 20.4007C67.3507 26.1845 72.0439 30.9313 77.8278 30.9849C78.0582 30.9881 78.2838 30.9881 78.5045 30.9849C82.0342 30.9897 85.2085 29.4269 87.3652 26.9537L86.1189 25.7025ZM78.2903 11.4231H78.3487C79.8336 11.4328 81.2455 12.0268 82.3166 13.093C83.3876 14.1592 83.9767 15.5613 83.967 17.0365C83.9573 18.6675 83.3828 20.0599 82.2971 21.0725C81.265 22.0316 79.8482 22.5623 78.3049 22.5574H78.2367L78.2903 11.4279V11.4231Z" fill="white"/>
</g>
<path d="M3.988 40.6421C4.74533 40.6421 5.43867 40.7328 6.068 40.9141C6.708 41.0848 7.252 41.3888 7.7 41.8261C8.15867 42.2634 8.516 42.8554 8.772 43.6021C9.028 44.3381 9.156 45.2714 9.156 46.4021C9.156 47.5008 9.028 48.4181 8.772 49.1541C8.52667 49.8901 8.17467 50.4821 7.716 50.9301C7.25733 51.3781 6.71333 51.6981 6.084 51.8901C5.45467 52.0714 4.76667 52.1621 4.02 52.1621H1.94V40.6421H3.988ZM3.3 41.6501V51.1061H4.004C4.65467 51.1061 5.21467 51.0261 5.684 50.8661C6.164 50.6954 6.55867 50.4234 6.868 50.0501C7.17733 49.6768 7.40667 49.1914 7.556 48.5941C7.70533 47.9968 7.78 47.2661 7.78 46.4021C7.78 44.7488 7.476 43.5434 6.868 42.7861C6.26 42.0288 5.29467 41.6501 3.972 41.6501H3.3ZM17.8813 40.6421V52.1621H16.5213V40.6421H17.8813ZM32.2916 40.6421V52.1621H30.5316L26.7876 42.4341V52.1621H25.5556V40.6421H27.3636L31.0916 50.2261V40.6421H32.2916ZM45.773 52.1621L44.925 49.0741H40.893L40.029 52.1621H38.685L42.125 40.6421H43.789L47.213 52.1621H45.773ZM41.197 48.0341H44.637L42.941 41.8901L41.197 48.0341ZM59.2248 52.1621L56.6488 47.6501H54.9688V52.1621H53.6088V40.6421H56.0088C57.2568 40.6421 58.2328 40.9301 58.9368 41.5061C59.6408 42.0714 59.9928 42.9674 59.9928 44.1941C59.9928 44.6314 59.9394 45.0208 59.8328 45.3621C59.7261 45.6928 59.5821 45.9861 59.4008 46.2421C59.2194 46.4981 59.0061 46.7168 58.7608 46.8981C58.5154 47.0794 58.2541 47.2288 57.9768 47.3461L60.8408 52.1621H59.2248ZM54.9688 41.6821V46.6101H56.0408C56.8728 46.6101 57.5074 46.4128 57.9448 46.0181C58.3821 45.6128 58.6008 45.0048 58.6008 44.1941C58.6008 43.3834 58.4034 42.7648 58.0088 42.3381C57.6141 41.9008 56.9421 41.6821 55.9928 41.6821H54.9688ZM73.123 52.1621L72.275 49.0741H68.243L67.379 52.1621H66.035L69.475 40.6421H71.139L74.563 52.1621H73.123ZM68.547 48.0341H71.987L70.291 41.8901L68.547 48.0341ZM95.8996 52.1621L91.9156 46.8021V52.1621H90.5556V40.6421H91.9156V45.6661L95.5316 40.6421H97.0516L93.0356 46.1301L97.5636 52.1621H95.8996ZM109.851 52.1621L109.003 49.0741H104.971L104.107 52.1621H102.763L106.203 40.6421H107.867L111.291 52.1621H109.851ZM105.275 48.0341H108.715L107.019 41.8901L105.275 48.0341ZM120.635 41.4581C120.037 41.4581 119.547 41.6021 119.163 41.8901C118.779 42.1674 118.587 42.6101 118.587 43.2181C118.587 43.4954 118.624 43.7408 118.699 43.9541C118.773 44.1674 118.896 44.3594 119.067 44.5301C119.248 44.7008 119.483 44.8661 119.771 45.0261C120.059 45.1754 120.416 45.3301 120.843 45.4901C121.259 45.6501 121.653 45.8261 122.027 46.0181C122.4 46.2101 122.725 46.4448 123.003 46.7221C123.291 46.9994 123.515 47.3354 123.675 47.7301C123.845 48.1248 123.931 48.6048 123.931 49.1701C123.931 49.6074 123.84 50.0234 123.659 50.4181C123.488 50.8128 123.243 51.1594 122.923 51.4581C122.613 51.7461 122.24 51.9754 121.803 52.1461C121.365 52.3168 120.885 52.4021 120.363 52.4021C119.829 52.4021 119.36 52.3328 118.955 52.1941C118.56 52.0661 118.219 51.8954 117.931 51.6821C117.643 51.4581 117.403 51.2074 117.211 50.9301C117.029 50.6528 116.885 50.3648 116.779 50.0661L117.931 49.6341C118.005 49.8474 118.101 50.0554 118.219 50.2581C118.347 50.4608 118.507 50.6421 118.699 50.8021C118.891 50.9514 119.12 51.0741 119.387 51.1701C119.664 51.2661 119.995 51.3141 120.379 51.3141C120.635 51.3141 120.891 51.2821 121.147 51.2181C121.403 51.1434 121.632 51.0261 121.835 50.8661C122.048 50.7061 122.219 50.4928 122.347 50.2261C122.475 49.9594 122.539 49.6341 122.539 49.2501C122.539 48.8448 122.485 48.5088 122.379 48.2421C122.283 47.9754 122.123 47.7408 121.899 47.5381C121.685 47.3354 121.403 47.1541 121.051 46.9941C120.699 46.8341 120.277 46.6528 119.787 46.4501C118.923 46.0981 118.283 45.6714 117.867 45.1701C117.461 44.6688 117.259 44.0501 117.259 43.3141C117.259 42.9088 117.333 42.5301 117.483 42.1781C117.632 41.8154 117.851 41.5061 118.139 41.2501C118.427 40.9834 118.773 40.7754 119.179 40.6261C119.595 40.4768 120.069 40.4021 120.603 40.4021C121.509 40.4021 122.219 40.5888 122.731 40.9621C123.243 41.3248 123.637 41.8208 123.915 42.4501L122.731 42.8661C122.549 42.4181 122.299 42.0714 121.979 41.8261C121.659 41.5808 121.211 41.4581 120.635 41.4581ZM136.44 52.1621L132.456 46.8021V52.1621H131.096V40.6421H132.456V45.6661L136.072 40.6421H137.592L133.576 46.1301L138.104 52.1621H136.44ZM143.545 46.4021C143.545 45.2821 143.662 44.3434 143.897 43.5861C144.132 42.8181 144.441 42.1994 144.825 41.7301C145.209 41.2608 145.646 40.9248 146.137 40.7221C146.638 40.5088 147.156 40.4021 147.689 40.4021C148.222 40.4021 148.734 40.5088 149.225 40.7221C149.726 40.9248 150.169 41.2608 150.553 41.7301C150.937 42.1994 151.246 42.8181 151.481 43.5861C151.716 44.3434 151.833 45.2821 151.833 46.4021C151.833 47.5221 151.716 48.4661 151.481 49.2341C151.246 49.9914 150.937 50.6048 150.553 51.0741C150.169 51.5434 149.726 51.8848 149.225 52.0981C148.724 52.3008 148.212 52.4021 147.689 52.4021C147.156 52.4021 146.638 52.3008 146.137 52.0981C145.646 51.8848 145.209 51.5434 144.825 51.0741C144.441 50.6048 144.132 49.9914 143.897 49.2341C143.662 48.4661 143.545 47.5221 143.545 46.4021ZM144.937 46.4021C144.937 48.0234 145.166 49.2554 145.625 50.0981C146.084 50.9408 146.772 51.3621 147.689 51.3621C148.606 51.3621 149.294 50.9408 149.753 50.0981C150.212 49.2554 150.441 48.0234 150.441 46.4021C150.441 44.7808 150.212 43.5488 149.753 42.7061C149.294 41.8634 148.606 41.4421 147.689 41.4421C146.772 41.4421 146.084 41.8634 145.625 42.7061C145.166 43.5488 144.937 44.7808 144.937 46.4021Z" fill="white"/>
<path d="M32.7782 60.206C33.1815 60.206 33.5518 60.2573 33.8892 60.36C34.2265 60.4553 34.5162 60.6093 34.7582 60.822C35.0002 61.0273 35.1872 61.2876 35.3192 61.603C35.4512 61.9183 35.5172 62.2923 35.5172 62.725C35.5172 63.1576 35.4475 63.5353 35.3082 63.858C35.1762 64.1733 34.9892 64.4373 34.7472 64.65C34.5052 64.8553 34.2155 65.0093 33.8782 65.112C33.5408 65.2146 33.1705 65.266 32.7672 65.266H31.9312V68.126H30.9962V60.206H32.7782ZM31.9312 60.921V64.551H32.7562C33.9588 64.551 34.5602 63.9423 34.5602 62.725C34.5602 62.153 34.4135 61.7093 34.1202 61.394C33.8342 61.0786 33.3942 60.921 32.8002 60.921H31.9312ZM44.7388 68.126L44.1558 66.003H41.3838L40.7898 68.126H39.8658L42.2308 60.206H43.3748L45.7288 68.126H44.7388ZM41.5928 65.288H43.9578L42.7918 61.064L41.5928 65.288ZM53.2524 60.767C52.8418 60.767 52.5044 60.866 52.2404 61.064C51.9764 61.2546 51.8444 61.559 51.8444 61.977C51.8444 62.1676 51.8701 62.3363 51.9214 62.483C51.9728 62.6296 52.0571 62.7616 52.1744 62.879C52.2991 62.9963 52.4604 63.11 52.6584 63.22C52.8564 63.3226 53.1021 63.429 53.3954 63.539C53.6814 63.649 53.9528 63.77 54.2094 63.902C54.4661 64.034 54.6898 64.1953 54.8804 64.386C55.0784 64.5766 55.2324 64.8076 55.3424 65.079C55.4598 65.3503 55.5184 65.6803 55.5184 66.069C55.5184 66.3696 55.4561 66.6556 55.3314 66.927C55.2141 67.1983 55.0454 67.4366 54.8254 67.642C54.6128 67.84 54.3561 67.9976 54.0554 68.115C53.7548 68.2323 53.4248 68.291 53.0654 68.291C52.6988 68.291 52.3761 68.2433 52.0974 68.148C51.8261 68.06 51.5914 67.9426 51.3934 67.796C51.1954 67.642 51.0304 67.4696 50.8984 67.279C50.7738 67.0883 50.6748 66.8903 50.6014 66.685L51.3934 66.388C51.4448 66.5346 51.5108 66.6776 51.5914 66.817C51.6794 66.9563 51.7894 67.081 51.9214 67.191C52.0534 67.2936 52.2111 67.378 52.3944 67.444C52.5851 67.51 52.8124 67.543 53.0764 67.543C53.2524 67.543 53.4284 67.521 53.6044 67.477C53.7804 67.4256 53.9381 67.345 54.0774 67.235C54.2241 67.125 54.3414 66.9783 54.4294 66.795C54.5174 66.6116 54.5614 66.388 54.5614 66.124C54.5614 65.8453 54.5248 65.6143 54.4514 65.431C54.3854 65.2476 54.2754 65.0863 54.1214 64.947C53.9748 64.8076 53.7804 64.683 53.5384 64.573C53.2964 64.463 53.0068 64.3383 52.6694 64.199C52.0754 63.957 51.6354 63.6636 51.3494 63.319C51.0708 62.9743 50.9314 62.549 50.9314 62.043C50.9314 61.7643 50.9828 61.504 51.0854 61.262C51.1881 61.0126 51.3384 60.8 51.5364 60.624C51.7344 60.4406 51.9728 60.2976 52.2514 60.195C52.5374 60.0923 52.8638 60.041 53.2304 60.041C53.8538 60.041 54.3414 60.1693 54.6934 60.426C55.0454 60.6753 55.3168 61.0163 55.5074 61.449L54.6934 61.735C54.5688 61.427 54.3964 61.1886 54.1764 61.02C53.9564 60.8513 53.6484 60.767 53.2524 60.767ZM65.4524 61.02H63.5164V68.126H62.5814V61.02H60.6674V60.206H65.4524V61.02ZM74.9191 68.126L73.1481 65.024H71.9931V68.126H71.0581V60.206H72.7081C73.5661 60.206 74.2371 60.404 74.7211 60.8C75.2051 61.1886 75.4471 61.8046 75.4471 62.648C75.4471 62.9486 75.4104 63.2163 75.3371 63.451C75.2637 63.6783 75.1647 63.88 75.0401 64.056C74.9154 64.232 74.7687 64.3823 74.6001 64.507C74.4314 64.6316 74.2517 64.7343 74.0611 64.815L76.0301 68.126H74.9191ZM71.9931 60.921V64.309H72.7301C73.3021 64.309 73.7384 64.1733 74.0391 63.902C74.3397 63.6233 74.4901 63.2053 74.4901 62.648C74.4901 62.0906 74.3544 61.6653 74.0831 61.372C73.8117 61.0713 73.3497 60.921 72.6971 60.921H71.9931ZM85.7801 60.206L83.5581 64.958V68.126H82.6341V64.958L80.3681 60.206H81.3911L83.1181 63.99L84.8671 60.206H85.7801ZM102.968 68.126L102.385 66.003H99.6129L99.0189 68.126H98.0949L100.46 60.206H101.604L103.958 68.126H102.968ZM99.8219 65.288H102.187L101.021 61.064L99.8219 65.288ZM113.316 68.126L111.545 65.024H110.39V68.126H109.455V60.206H111.105C111.963 60.206 112.634 60.404 113.118 60.8C113.602 61.1886 113.844 61.8046 113.844 62.648C113.844 62.9486 113.807 63.2163 113.734 63.451C113.661 63.6783 113.562 63.88 113.437 64.056C113.312 64.232 113.166 64.3823 112.997 64.507C112.828 64.6316 112.649 64.7343 112.458 64.815L114.427 68.126H113.316ZM110.39 60.921V64.309H111.127C111.699 64.309 112.135 64.1733 112.436 63.902C112.737 63.6233 112.887 63.2053 112.887 62.648C112.887 62.0906 112.751 61.6653 112.48 61.372C112.209 61.0713 111.747 60.921 111.094 60.921H110.39ZM123.778 61.02H121.842V68.126H120.907V61.02H118.993V60.206H123.778V61.02Z" fill="white"/>
<defs>
<clipPath id="clip0_370_1395">
<rect width="21" height="31" fill="white" transform="translate(66.5 0.162109)"/>
</clipPath>
</defs>
</svg>
