<svg width="161" height="33" viewBox="0 0 161 33" fill="none" xmlns="http://www.w3.org/2000/svg">
<g clip-path="url(#clip0_727_5194)">
<path d="M19.6189 25.5406C17.7834 27.6925 15.0522 29.0606 12.0142 29.0606C12.0045 29.0606 11.8438 29.0606 11.6832 29.0606C11.5225 29.0606 11.3472 29.0557 11.3375 29.0557C6.52251 29.0119 2.61307 25.0586 2.62768 20.2388V19.7373C2.65202 15.4286 5.875 11.8746 10.0279 11.3196L9.96457 24.1433L11.469 24.1531H11.4836H11.727C11.7708 24.1531 11.8 24.1531 11.8 24.1531C13.7912 24.1531 15.6364 23.4617 16.9947 22.1959C18.4261 20.8668 19.2148 18.9778 19.2294 16.8795C19.2391 14.9321 18.4699 13.082 17.058 11.6799C15.6559 10.2826 13.8107 9.5085 11.8584 9.49877H11.8L11.8438 0.350779L10.0814 0.341042L10.0376 9.54258C4.91103 10.1073 0.89448 14.4501 0.865268 19.7324C0.865268 19.7422 0.865268 20.2339 0.865268 20.2388C0.850663 26.0226 5.54394 30.7694 11.3278 30.823C11.5582 30.8262 11.7838 30.8262 12.0045 30.823C15.5342 30.8278 18.7085 29.265 20.8652 26.7918L19.6189 25.5406ZM11.7903 11.2612H11.8487C13.3336 11.2709 14.7455 11.8649 15.8166 12.9311C16.8876 13.9973 17.4767 15.3994 17.467 16.8746C17.4573 18.5056 16.8828 19.898 15.7971 20.9106C14.765 21.8697 13.3482 22.4004 11.8049 22.3955H11.7367L11.7903 11.266V11.2612Z" fill="white"/>
</g>
<path d="M30.052 2.92C30.7147 2.92 31.3213 2.99933 31.872 3.158C32.432 3.30733 32.908 3.57333 33.3 3.956C33.7013 4.33867 34.014 4.85667 34.238 5.51C34.462 6.154 34.574 6.97067 34.574 7.96C34.574 8.92133 34.462 9.724 34.238 10.368C34.0233 11.012 33.7153 11.53 33.314 11.922C32.9127 12.314 32.4367 12.594 31.886 12.762C31.3353 12.9207 30.7333 13 30.08 13H28.26V2.92H30.052ZM29.45 3.802V12.076H30.066C30.6353 12.076 31.1253 12.006 31.536 11.866C31.956 11.7167 32.3013 11.4787 32.572 11.152C32.8427 10.8253 33.0433 10.4007 33.174 9.878C33.3047 9.35533 33.37 8.716 33.37 7.96C33.37 6.51333 33.104 5.45867 32.572 4.796C32.04 4.13333 31.1953 3.802 30.038 3.802H29.45ZM42.2086 2.92V13H41.0186V2.92H42.2086ZM54.8177 2.92V13H53.2777L50.0017 4.488V13H48.9237V2.92H50.5057L53.7677 11.306V2.92H54.8177ZM66.6139 13L65.8719 10.298H62.3439L61.5879 13H60.4119L63.4219 2.92H64.8779L67.8739 13H66.6139ZM62.6099 9.388H65.6199L64.1359 4.012L62.6099 9.388ZM78.3842 13L76.1302 9.052H74.6602V13H73.4702V2.92H75.5702C76.6622 2.92 77.5162 3.172 78.1322 3.676C78.7482 4.17067 79.0562 4.95467 79.0562 6.028C79.0562 6.41067 79.0095 6.75133 78.9162 7.05C78.8228 7.33933 78.6968 7.596 78.5382 7.82C78.3795 8.044 78.1928 8.23533 77.9782 8.394C77.7635 8.55267 77.5348 8.68333 77.2922 8.786L79.7982 13H78.3842ZM74.6602 3.83V8.142H75.5982C76.3262 8.142 76.8815 7.96933 77.2642 7.624C77.6468 7.26933 77.8382 6.73733 77.8382 6.028C77.8382 5.31867 77.6655 4.77733 77.3202 4.404C76.9748 4.02133 76.3868 3.83 75.5562 3.83H74.6602ZM90.5451 13L89.8031 10.298H86.2751L85.5191 13H84.3431L87.3531 2.92H88.8091L91.8051 13H90.5451ZM86.5411 9.388H89.5511L88.0671 4.012L86.5411 9.388ZM110.475 13L106.989 8.31V13H105.799V2.92H106.989V7.316L110.153 2.92H111.483L107.969 7.722L111.931 13H110.475ZM122.682 13L121.94 10.298H118.412L117.656 13H116.48L119.49 2.92H120.946L123.942 13H122.682ZM118.678 9.388H121.688L120.204 4.012L118.678 9.388ZM132.118 3.634C131.595 3.634 131.166 3.76 130.83 4.012C130.494 4.25467 130.326 4.642 130.326 5.174C130.326 5.41667 130.358 5.63133 130.424 5.818C130.489 6.00467 130.596 6.17267 130.746 6.322C130.904 6.47133 131.11 6.616 131.362 6.756C131.614 6.88667 131.926 7.022 132.3 7.162C132.664 7.302 133.009 7.456 133.336 7.624C133.662 7.792 133.947 7.99733 134.19 8.24C134.442 8.48267 134.638 8.77667 134.778 9.122C134.927 9.46733 135.002 9.88733 135.002 10.382C135.002 10.7647 134.922 11.1287 134.764 11.474C134.614 11.8193 134.4 12.1227 134.12 12.384C133.849 12.636 133.522 12.8367 133.14 12.986C132.757 13.1353 132.337 13.21 131.88 13.21C131.413 13.21 131.002 13.1493 130.648 13.028C130.302 12.916 130.004 12.7667 129.752 12.58C129.5 12.384 129.29 12.1647 129.122 11.922C128.963 11.6793 128.837 11.4273 128.744 11.166L129.752 10.788C129.817 10.9747 129.901 11.1567 130.004 11.334C130.116 11.5113 130.256 11.67 130.424 11.81C130.592 11.9407 130.792 12.048 131.026 12.132C131.268 12.216 131.558 12.258 131.894 12.258C132.118 12.258 132.342 12.23 132.566 12.174C132.79 12.1087 132.99 12.006 133.168 11.866C133.354 11.726 133.504 11.5393 133.616 11.306C133.728 11.0727 133.784 10.788 133.784 10.452C133.784 10.0973 133.737 9.80333 133.644 9.57C133.56 9.33667 133.42 9.13133 133.224 8.954C133.037 8.77667 132.79 8.618 132.482 8.478C132.174 8.338 131.805 8.17933 131.376 8.002C130.62 7.694 130.06 7.32067 129.696 6.882C129.341 6.44333 129.164 5.902 129.164 5.258C129.164 4.90333 129.229 4.572 129.36 4.264C129.49 3.94667 129.682 3.676 129.934 3.452C130.186 3.21867 130.489 3.03667 130.844 2.906C131.208 2.77533 131.623 2.71 132.09 2.71C132.883 2.71 133.504 2.87333 133.952 3.2C134.4 3.51733 134.745 3.95133 134.988 4.502L133.952 4.866C133.793 4.474 133.574 4.17067 133.294 3.956C133.014 3.74133 132.622 3.634 132.118 3.634ZM145.948 13L142.462 8.31V13H141.272V2.92H142.462V7.316L145.626 2.92H146.956L143.442 7.722L147.404 13H145.948ZM152.164 7.96C152.164 6.98 152.267 6.15867 152.472 5.496C152.678 4.824 152.948 4.28267 153.284 3.872C153.62 3.46133 154.003 3.16733 154.432 2.99C154.871 2.80333 155.324 2.71 155.79 2.71C156.257 2.71 156.705 2.80333 157.134 2.99C157.573 3.16733 157.96 3.46133 158.296 3.872C158.632 4.28267 158.903 4.824 159.108 5.496C159.314 6.15867 159.416 6.98 159.416 7.96C159.416 8.94 159.314 9.766 159.108 10.438C158.903 11.1007 158.632 11.6373 158.296 12.048C157.96 12.4587 157.573 12.7573 157.134 12.944C156.696 13.1213 156.248 13.21 155.79 13.21C155.324 13.21 154.871 13.1213 154.432 12.944C154.003 12.7573 153.62 12.4587 153.284 12.048C152.948 11.6373 152.678 11.1007 152.472 10.438C152.267 9.766 152.164 8.94 152.164 7.96ZM153.382 7.96C153.382 9.37867 153.583 10.4567 153.984 11.194C154.386 11.9313 154.988 12.3 155.79 12.3C156.593 12.3 157.195 11.9313 157.596 11.194C157.998 10.4567 158.198 9.37867 158.198 7.96C158.198 6.54133 157.998 5.46333 157.596 4.726C157.195 3.98867 156.593 3.62 155.79 3.62C154.988 3.62 154.386 3.98867 153.984 4.726C153.583 5.46333 153.382 6.54133 153.382 7.96Z" fill="white"/>
<path d="M30.024 21.3243C30.464 21.3243 30.868 21.3803 31.236 21.4923C31.604 21.5963 31.92 21.7643 32.184 21.9963C32.448 22.2203 32.652 22.5043 32.796 22.8483C32.94 23.1923 33.012 23.6003 33.012 24.0723C33.012 24.5443 32.936 24.9563 32.784 25.3083C32.64 25.6523 32.436 25.9403 32.172 26.1723C31.908 26.3963 31.592 26.5643 31.224 26.6763C30.856 26.7883 30.452 26.8443 30.012 26.8443H29.1V29.9643H28.08V21.3243H30.024ZM29.1 22.1043V26.0643H30C31.312 26.0643 31.968 25.4003 31.968 24.0723C31.968 23.4483 31.808 22.9643 31.488 22.6203C31.176 22.2763 30.696 22.1043 30.048 22.1043H29.1ZM43.0719 29.9643L42.4359 27.6483H39.4119L38.7639 29.9643H37.7559L40.3359 21.3243H41.5839L44.1519 29.9643H43.0719ZM39.6399 26.8683H42.2199L40.9479 22.2603L39.6399 26.8683ZM52.3596 21.9363C51.9116 21.9363 51.5436 22.0443 51.2556 22.2603C50.9676 22.4683 50.8236 22.8003 50.8236 23.2563C50.8236 23.4643 50.8516 23.6483 50.9076 23.8083C50.9636 23.9683 51.0556 24.1123 51.1836 24.2403C51.3196 24.3683 51.4956 24.4923 51.7116 24.6123C51.9276 24.7243 52.1956 24.8403 52.5156 24.9603C52.8276 25.0803 53.1236 25.2123 53.4036 25.3563C53.6836 25.5003 53.9276 25.6763 54.1356 25.8843C54.3516 26.0923 54.5196 26.3443 54.6396 26.6403C54.7676 26.9363 54.8316 27.2963 54.8316 27.7203C54.8316 28.0483 54.7636 28.3603 54.6276 28.6563C54.4996 28.9523 54.3156 29.2123 54.0756 29.4363C53.8436 29.6523 53.5636 29.8243 53.2356 29.9523C52.9076 30.0803 52.5476 30.1443 52.1556 30.1443C51.7556 30.1443 51.4036 30.0923 51.0996 29.9883C50.8036 29.8923 50.5476 29.7643 50.3316 29.6043C50.1156 29.4363 49.9356 29.2483 49.7916 29.0403C49.6556 28.8323 49.5476 28.6163 49.4676 28.3923L50.3316 28.0683C50.3876 28.2283 50.4596 28.3843 50.5476 28.5363C50.6436 28.6883 50.7636 28.8243 50.9076 28.9443C51.0516 29.0563 51.2236 29.1483 51.4236 29.2203C51.6316 29.2923 51.8796 29.3283 52.1676 29.3283C52.3596 29.3283 52.5516 29.3043 52.7436 29.2563C52.9356 29.2003 53.1076 29.1123 53.2596 28.9923C53.4196 28.8723 53.5476 28.7123 53.6436 28.5123C53.7396 28.3123 53.7876 28.0683 53.7876 27.7803C53.7876 27.4763 53.7476 27.2243 53.6676 27.0243C53.5956 26.8243 53.4756 26.6483 53.3076 26.4963C53.1476 26.3443 52.9356 26.2083 52.6716 26.0883C52.4076 25.9683 52.0916 25.8323 51.7236 25.6803C51.0756 25.4163 50.5956 25.0963 50.2836 24.7203C49.9796 24.3443 49.8276 23.8803 49.8276 23.3283C49.8276 23.0243 49.8836 22.7403 49.9956 22.4763C50.1076 22.2043 50.2716 21.9723 50.4876 21.7803C50.7036 21.5803 50.9636 21.4243 51.2676 21.3123C51.5796 21.2003 51.9356 21.1443 52.3356 21.1443C53.0156 21.1443 53.5476 21.2843 53.9316 21.5643C54.3156 21.8363 54.6116 22.2083 54.8196 22.6803L53.9316 22.9923C53.7956 22.6563 53.6076 22.3963 53.3676 22.2123C53.1276 22.0283 52.7916 21.9363 52.3596 21.9363ZM65.6686 22.2123H63.5566V29.9643H62.5366V22.2123H60.4486V21.3243H65.6686V22.2123ZM75.9959 29.9643L74.0639 26.5803H72.8039V29.9643H71.7839V21.3243H73.5839C74.5199 21.3243 75.2519 21.5403 75.7799 21.9723C76.3079 22.3963 76.5719 23.0683 76.5719 23.9883C76.5719 24.3163 76.5319 24.6083 76.4519 24.8643C76.3719 25.1123 76.2639 25.3323 76.1279 25.5243C75.9919 25.7163 75.8319 25.8803 75.6479 26.0163C75.4639 26.1523 75.2679 26.2643 75.0599 26.3523L77.2079 29.9643H75.9959ZM72.8039 22.1043V25.8003H73.6079C74.2319 25.8003 74.7079 25.6523 75.0359 25.3563C75.3639 25.0523 75.5279 24.5963 75.5279 23.9883C75.5279 23.3803 75.3799 22.9163 75.0839 22.5963C74.7879 22.2683 74.2839 22.1043 73.5719 22.1043H72.8039ZM87.8443 21.3243L85.4203 26.5083V29.9643H84.4123V26.5083L81.9403 21.3243H83.0563L84.9403 25.4523L86.8483 21.3243H87.8443ZM106.595 29.9643L105.959 27.6483H102.935L102.287 29.9643H101.279L103.859 21.3243H105.107L107.675 29.9643H106.595ZM103.163 26.8683H105.743L104.471 22.2603L103.163 26.8683ZM117.883 29.9643L115.951 26.5803H114.691V29.9643H113.671V21.3243H115.471C116.407 21.3243 117.139 21.5403 117.667 21.9723C118.195 22.3963 118.459 23.0683 118.459 23.9883C118.459 24.3163 118.419 24.6083 118.339 24.8643C118.259 25.1123 118.151 25.3323 118.015 25.5243C117.879 25.7163 117.719 25.8803 117.535 26.0163C117.351 26.1523 117.155 26.2643 116.947 26.3523L119.095 29.9643H117.883ZM114.691 22.1043V25.8003H115.495C116.119 25.8003 116.595 25.6523 116.923 25.3563C117.251 25.0523 117.415 24.5963 117.415 23.9883C117.415 23.3803 117.267 22.9163 116.971 22.5963C116.675 22.2683 116.171 22.1043 115.459 22.1043H114.691ZM129.297 22.2123H127.185V29.9643H126.165V22.2123H124.077V21.3243H129.297V22.2123Z" fill="white"/>
<defs>
<clipPath id="clip0_727_5194">
<rect width="21" height="31" fill="white"/>
</clipPath>
</defs>
</svg>
